<svg xmlns="http://www.w3.org/2000/svg" viewBox="37 17.794 261.403 59.206"><defs><style>.a,.d{fill:#fff;}.b{fill:#78a8cf;}.c{fill:#30548f;}.d{font-size:40px;font-family:Avenir-Black, Avenir;font-weight:800;}</style></defs><g transform="translate(-588 -928)"><g transform="translate(625 945.794)"><path class="a" d="M39.584,0H19.623A19.62,19.62,0,0,0,0,19.623V39.584A19.62,19.62,0,0,0,19.623,59.206H39.584A19.62,19.62,0,0,0,59.206,39.584V19.623A19.62,19.62,0,0,0,39.584,0Z"/><g transform="translate(1.464 1.452)"><path class="b" d="M220.4,399.2l2.928-10.6,2.928,10.6Z" transform="translate(-195.2 -343.04)"/><path class="b" d="M399.2,220.6l-10.6,2.916,10.6,2.928Z" transform="translate(-343.052 -195.364)"/><path class="b" d="M220.6,13.1l2.916,10.61,2.928-10.61Z" transform="translate(-195.376 -12.967)"/><path class="b" d="M13.1,226.255l10.61-2.928L13.1,220.4Z" transform="translate(-12.979 -195.188)"/><path class="b" d="M152.109,129.624h-7.936V121.7H130.236v7.924H122.3v13.949h7.936v7.936h13.937v-7.936h7.936Z" transform="translate(-108.968 -108.429)"/><path class="c" d="M89.123,60.869a15.337,15.337,0,0,1,5.976,1.21,15.56,15.56,0,0,1,4.9,3.3,15.291,15.291,0,0,1,3.3,4.9,15.122,15.122,0,0,1,1.21,5.976V88.935a15.337,15.337,0,0,1-1.21,5.976,15.56,15.56,0,0,1-3.3,4.9,15.291,15.291,0,0,1-4.9,3.3,15.122,15.122,0,0,1-5.976,1.21H76.445a15.337,15.337,0,0,1-5.976-1.21,15.56,15.56,0,0,1-4.9-3.3,15.291,15.291,0,0,1-3.3-4.9,15.122,15.122,0,0,1-1.21-5.976V76.257a15.337,15.337,0,0,1,1.21-5.976,15.56,15.56,0,0,1,3.3-4.9,15.291,15.291,0,0,1,4.9-3.3,15.122,15.122,0,0,1,5.976-1.21H89.123m0-.569H76.445A15.99,15.99,0,0,0,60.5,76.245V88.935A15.99,15.99,0,0,0,76.445,104.88H89.123a15.99,15.99,0,0,0,15.945-15.945V76.257A16,16,0,0,0,89.123,60.3Z" transform="translate(-54.645 -54.457)"/><path class="c" d="M62.4,86.687H60.789V83.251H62.4Zm15.146-2.2L76,81.425a12.733,12.733,0,0,0,1.246-.714L79.093,83.6C78.585,83.917,78.065,84.219,77.544,84.485ZM45.57,84.5c-.52-.29-1.028-.6-1.512-.932l1.948-2.819a13.735,13.735,0,0,0,1.222.75ZM86.7,70.791l-3.412-.339a14.1,14.1,0,0,0,.073-1.428v-.036H86.8v.036C86.787,69.617,86.763,70.21,86.7,70.791Zm-50.266-.665c-.024-.363-.036-.738-.036-1.113v-.6h3.436v.6c0,.3.012.593.024.9Zm50.351-15.57H83.351v-.581c0-.3-.012-.6-.024-.907l3.424-.218q.036.563.036,1.125v.581Zm-46.951-.569H36.4v-.012a17.027,17.027,0,0,1,.085-1.754l3.412.339a13.863,13.863,0,0,0-.073,1.415v.012ZM77.169,42.252a13.736,13.736,0,0,0-1.222-.75L77.6,38.49a14.921,14.921,0,0,1,1.512.932Zm-31.224.036-1.851-2.9c.5-.315,1.016-.617,1.536-.883l1.549,3.061C46.756,41.792,46.344,42.022,45.945,42.288ZM62.4,39.736H60.789V36.3H62.4Z" transform="translate(-33.46 -33.36)"/><path class="c" d="M49.228,15.545a15.283,15.283,0,0,1,6.049,1.234,15.747,15.747,0,0,1,8.311,8.311,15.5,15.5,0,0,1,1.234,6.049V49.128a15.283,15.283,0,0,1-1.234,6.049,15.747,15.747,0,0,1-8.311,8.311,15.5,15.5,0,0,1-6.049,1.234H31.239a15.283,15.283,0,0,1-6.049-1.234,15.747,15.747,0,0,1-8.311-8.311,15.5,15.5,0,0,1-1.234-6.049V31.139a15.283,15.283,0,0,1,1.234-6.049,15.747,15.747,0,0,1,8.311-8.311,15.5,15.5,0,0,1,6.049-1.234H49.228m0-3.545H31.239A19.2,19.2,0,0,0,12.1,31.139V49.128A19.2,19.2,0,0,0,31.239,68.267H49.228A19.2,19.2,0,0,0,68.367,49.128V31.139A19.2,19.2,0,0,0,49.228,12Z" transform="translate(-12.1 -12)"/><path class="c" d="M223.9,136.568h0l2.5,14.88.06-.315,2.625-14.542v-.012l-2.5-14.88-.06.327Zm4.222.012h0a1.637,1.637,0,0,1-1.645,1.633h0a1.637,1.637,0,0,1-1.633-1.645h0a1.644,1.644,0,0,1,1.645-1.633h.012A1.65,1.65,0,0,1,228.122,136.58Z" transform="translate(-198.277 -108.429)"/></g></g><text class="d" transform="translate(684.403 949.391)"><tspan x="5.045" y="40">DocInWay</tspan></text></g></svg>